<svg data-v-423bf9ae="" xmlns="http://www.w3.org/2000/svg" viewBox="0 0 475 90" class="iconLeft"><!----><!----><!----><g data-v-423bf9ae="" id="81fc42a2-7a6c-4250-829e-0190a84efb1b" fill="black" transform="matrix(5.774783134460449,0,0,5.774783134460449,111.69158935546875,-4.2300238609313965)"><path d="M0.28 3.65L0.28 3.65L0.28 3.65Q0.28 3.46 0.67 3.46L0.67 3.46L0.67 3.46Q0.73 3.46 0.85 3.47L0.85 3.47L0.85 3.47Q0.98 3.49 1.05 3.49L1.05 3.49L1.05 3.49Q1.09 3.49 2.37 3.52L2.37 3.52L2.37 3.52Q3.64 3.56 4.47 3.56L4.47 3.56L4.47 3.56Q4.76 3.56 5.92 3.53L5.92 3.53L5.92 3.53Q7.07 3.50 7.27 3.50L7.27 3.50L7.27 3.50Q7.53 3.50 7.53 3.82L7.53 3.82L7.53 3.82Q7.53 3.91 7.45 4.38L7.45 4.38L7.45 4.38Q7.36 4.84 7.36 5.25L7.36 5.25L7.36 5.25Q7.36 5.38 7.29 5.47L7.29 5.47L7.29 5.47Q7.22 5.56 7.14 5.56L7.14 5.56L7.14 5.56Q6.93 5.56 6.93 5.26L6.93 5.26L6.93 5.26Q6.93 4.89 6.69 4.58L6.69 4.58L6.69 4.58Q6.45 4.27 6.10 4.26L6.10 4.26L6.10 4.26Q4.84 4.16 4.17 4.16L4.17 4.16L3.81 4.16L3.81 4.16Q3.08 4.16 2.96 4.26L2.96 4.26L2.96 4.26Q2.84 4.37 2.81 5.01L2.81 5.01L2.81 5.01Q2.76 6.02 2.76 7.35L2.76 7.35L2.76 7.35Q2.76 8.05 3.02 8.06L3.02 8.06L3.37 8.06L3.96 8.06L4.40 8.06L4.40 8.06Q5.24 8.06 5.52 8.01L5.52 8.01L5.52 8.01Q5.80 7.95 6.02 7.80L6.02 7.80L6.02 7.80Q6.29 7.62 6.34 7.28L6.34 7.28L6.34 7.28Q6.38 7.04 6.54 7.04L6.54 7.04L6.54 7.04Q6.66 7.04 6.69 7.08L6.69 7.08L6.69 7.08Q6.72 7.13 6.72 7.27L6.72 7.27L6.72 7.27Q6.72 7.36 6.66 7.91L6.66 7.91L6.66 7.91Q6.61 8.46 6.61 8.74L6.61 8.74L6.61 8.74Q6.61 9.00 6.63 9.24L6.63 9.24L6.63 9.24Q6.65 9.48 6.65 9.59L6.65 9.59L6.65 9.59Q6.65 9.94 6.55 9.94L6.55 9.94L6.55 9.94Q6.34 9.94 6.24 9.60L6.24 9.60L6.24 9.60Q6.05 9.02 5.89 8.92L5.89 8.92L5.89 8.92Q5.60 8.72 4.55 8.72L4.55 8.72L4.55 8.72Q4.13 8.72 3.87 8.72L3.87 8.72L3.87 8.72Q3.61 8.72 3.54 8.71L3.54 8.71L3.54 8.71Q3.46 8.71 3.41 8.71L3.41 8.71L3.41 8.71Q3.36 8.71 3.32 8.71L3.32 8.71L3.32 8.71Q2.74 8.71 2.74 8.97L2.74 8.97L2.74 8.97Q2.74 9.38 2.73 9.99L2.73 9.99L2.73 9.99Q2.72 10.60 2.72 10.99L2.72 10.99L2.72 11.55L2.72 11.55Q2.72 12.56 3.05 12.66L3.05 12.66L3.05 12.66Q3.40 12.77 3.65 12.77L3.65 12.77L3.65 12.77Q4.70 12.77 5.50 12.67L5.50 12.67L5.50 12.67Q6.29 12.57 6.69 12.42L6.69 12.42L6.69 12.42Q7.08 12.28 7.35 12.10L7.35 12.10L7.35 12.10Q7.62 11.93 7.69 11.78L7.69 11.78L7.69 11.78Q7.77 11.63 7.85 11.54L7.85 11.54L7.85 11.54Q7.92 11.44 8.01 11.44L8.01 11.44L8.01 11.44Q8.18 11.44 8.18 11.68L8.18 11.68L8.18 11.68Q8.18 12.28 7.57 12.89L7.57 12.89L7.57 12.89Q6.97 13.51 6.52 13.51L6.52 13.51L6.52 13.51Q5.52 13.51 4.25 13.44L4.25 13.44L4.25 13.44Q2.98 13.37 2.67 13.37L2.67 13.37L2.67 13.37Q2.28 13.37 1.69 13.43L1.69 13.43L1.69 13.43Q1.11 13.50 0.77 13.50L0.77 13.50L0.77 13.50Q0.48 13.50 0.48 13.36L0.48 13.36L0.48 13.36Q0.48 13.23 0.48 13.19L0.48 13.19L0.48 13.19Q0.48 13.15 0.52 13.12L0.52 13.12L0.52 13.12Q0.56 13.09 0.61 13.08L0.61 13.08L0.61 13.08Q0.66 13.08 0.79 13.03L0.79 13.03L0.79 13.03Q0.92 12.99 1.08 12.92L1.08 12.92L1.08 12.92Q1.41 12.75 1.52 12.26L1.52 12.26L1.52 12.26Q1.62 11.77 1.62 10.21L1.62 10.21L1.62 8.47L1.62 8.47Q1.62 8.09 1.65 7.29L1.65 7.29L1.65 7.29Q1.67 6.50 1.67 6.05L1.67 6.05L1.67 6.05Q1.67 5.67 1.64 4.77L1.64 4.77L1.64 4.77Q1.62 4.37 1.29 4.14L1.29 4.14L1.29 4.14Q0.95 3.92 0.50 3.91L0.50 3.91L0.50 3.91Q0.28 3.91 0.28 3.65ZM9.07 8.90L9.07 8.90L9.07 8.90Q9.07 7.38 9.66 6.16L9.66 6.16L9.66 6.16Q10.25 4.94 11.47 4.19L11.47 4.19L11.47 4.19Q12.70 3.44 14.38 3.44L14.38 3.44L14.38 3.44Q15.23 3.44 16.10 3.70L16.10 3.70L16.10 3.70Q16.97 3.95 17.49 4.20L17.49 4.20L18.00 4.47L18.00 4.47Q18.05 4.47 18.14 4.40L18.14 4.40L18.14 4.40Q18.24 4.33 18.30 4.33L18.30 4.33L18.30 4.33Q18.37 4.33 18.44 4.38L18.44 4.38L18.44 4.38Q18.51 4.44 18.51 4.55L18.51 4.55L18.51 4.55Q18.52 4.96 18.57 5.41L18.57 5.41L18.57 5.41Q18.62 5.87 18.66 6.16L18.66 6.16L18.66 6.16Q18.70 6.45 18.70 6.51L18.70 6.51L18.70 6.51Q18.70 6.76 18.54 6.76L18.54 6.76L18.54 6.76Q18.41 6.76 18.30 6.57L18.30 6.57L18.30 6.57Q16.94 4.02 14.38 4.02L14.38 4.02L14.38 4.02Q12.63 4.02 11.51 5.14L11.51 5.14L11.51 5.14Q10.39 6.26 10.39 8.06L10.39 8.06L10.39 8.06Q10.39 9.06 10.65 9.93L10.65 9.93L10.65 9.93Q10.91 10.79 11.43 11.51L11.43 11.51L11.43 11.51Q11.96 12.24 12.88 12.66L12.88 12.66L12.88 12.66Q13.80 13.08 15.04 13.08L15.04 13.08L15.04 13.08Q17.05 13.08 18.42 10.98L18.42 10.98L18.42 10.98Q18.48 10.88 18.63 10.88L18.63 10.88L18.63 10.88Q18.76 10.88 18.76 11.07L18.76 11.07L18.76 11.07Q18.76 11.23 18.71 11.49L18.71 11.49L18.71 11.49Q18.66 11.75 18.59 12.06L18.59 12.06L18.59 12.06Q18.52 12.38 18.51 12.45L18.51 12.45L18.51 12.45Q18.48 12.60 18.28 12.70L18.28 12.70L18.28 12.70Q17.53 13.06 17.10 13.24L17.10 13.24L17.10 13.24Q16.67 13.43 16.02 13.57L16.02 13.57L16.02 13.57Q15.36 13.72 14.67 13.72L14.67 13.72L14.67 13.72Q13.45 13.72 12.47 13.43L12.47 13.43L12.47 13.43Q11.49 13.13 10.87 12.66L10.87 12.66L10.87 12.66Q10.25 12.18 9.83 11.54L9.83 11.54L9.83 11.54Q9.41 10.91 9.24 10.25L9.24 10.25L9.24 10.25Q9.07 9.60 9.07 8.90ZM23.35 8.83L23.35 8.83L23.35 8.83Q23.35 7.31 23.96 6.09L23.96 6.09L23.96 6.09Q24.57 4.87 25.83 4.12L25.83 4.12L25.83 4.12Q27.09 3.37 28.83 3.37L28.83 3.37L28.83 3.37Q29.50 3.37 30.09 3.48L30.09 3.48L30.09 3.48Q30.67 3.58 31.05 3.72L31.05 3.72L31.05 3.72Q31.43 3.86 31.71 4.01L31.71 4.01L31.71 4.01Q31.99 4.16 32.14 4.26L32.14 4.26L32.14 4.26Q32.28 4.37 32.31 4.37L32.31 4.37L32.31 4.37Q32.35 4.37 32.50 4.26L32.50 4.26L32.50 4.26Q32.65 4.16 32.70 4.16L32.70 4.16L32.70 4.16Q32.91 4.16 32.91 4.44L32.91 4.44L32.91 4.44Q32.93 4.84 32.98 5.29L32.98 5.29L32.98 5.29Q33.03 5.74 33.07 6.03L33.07 6.03L33.07 6.03Q33.11 6.33 33.11 6.38L33.11 6.38L33.11 6.38Q33.11 6.62 32.94 6.62L32.94 6.62L32.94 6.62Q32.77 6.62 32.70 6.45L32.70 6.45L32.70 6.45Q32.21 5.39 31.07 4.65L31.07 4.65L31.07 4.65Q29.92 3.92 28.70 3.92L28.70 3.92L28.70 3.92Q26.95 3.92 25.81 5.02L25.81 5.02L25.81 5.02Q24.67 6.12 24.67 8.06L24.67 8.06L24.67 8.06Q24.67 9.35 25.14 10.49L25.14 10.49L25.14 10.49Q25.62 11.62 26.59 12.36L26.59 12.36L26.59 12.36Q27.57 13.10 28.83 13.10L28.83 13.10L28.83 13.10Q29.90 13.10 30.78 12.61L30.78 12.61L30.78 12.61Q31.65 12.12 31.75 11.49L31.75 11.49L31.75 11.49Q31.79 11.16 31.79 9.73L31.79 9.73L31.79 9.73Q31.79 9.18 31.56 8.95L31.56 8.95L31.56 8.95Q31.39 8.78 30.94 8.72L30.94 8.72L30.94 8.72Q30.52 8.68 30.45 8.55L30.45 8.55L30.45 8.55Q30.42 8.50 30.42 8.41L30.42 8.41L30.42 8.41Q30.42 8.26 30.67 8.26L30.67 8.26L30.67 8.26Q30.86 8.26 31.46 8.29L31.46 8.29L31.46 8.29Q32.06 8.33 32.23 8.33L32.23 8.33L32.23 8.33Q32.51 8.33 32.83 8.32L32.83 8.32L32.83 8.32Q33.15 8.32 33.35 8.32L33.35 8.32L33.56 8.32L33.56 8.32Q33.78 8.32 33.78 8.44L33.78 8.44L33.78 8.44Q33.78 8.54 33.42 8.69L33.42 8.69L33.42 8.69Q33.07 8.85 33.03 9.09L33.03 9.09L33.03 9.09Q32.93 9.69 32.93 10.65L32.93 10.65L32.93 10.65Q32.93 11.07 32.94 11.40L32.94 11.40L32.94 11.40Q32.96 11.72 32.96 11.85L32.96 11.85L32.96 11.85Q32.97 11.98 32.98 12.08L32.98 12.08L32.98 12.08Q33.00 12.18 33.00 12.22L33.00 12.22L33.00 12.22Q33.00 12.29 32.89 12.33L32.89 12.33L32.89 12.33Q32.79 12.36 32.55 12.42L32.55 12.42L32.55 12.42Q32.31 12.49 32.12 12.60L32.12 12.60L32.02 12.66L32.02 12.66Q31.92 12.73 31.82 12.78L31.82 12.78L31.82 12.78Q31.72 12.84 31.56 12.92L31.56 12.92L31.56 12.92Q31.40 13.01 31.23 13.09L31.23 13.09L31.23 13.09Q31.07 13.17 30.86 13.26L30.86 13.26L30.86 13.26Q30.65 13.36 30.42 13.43L30.42 13.43L30.42 13.43Q30.20 13.50 29.96 13.55L29.96 13.55L29.96 13.55Q29.72 13.61 29.46 13.64L29.46 13.64L29.46 13.64Q29.20 13.68 28.95 13.68L28.95 13.68L28.95 13.68Q27.43 13.68 26.30 13.26L26.30 13.26L26.30 13.26Q25.17 12.85 24.56 12.14L24.56 12.14L24.56 12.14Q23.94 11.44 23.65 10.61L23.65 10.61L23.65 10.61Q23.35 9.79 23.35 8.83ZM34.47 3.65L34.47 3.65L34.47 3.65Q34.47 3.46 34.86 3.46L34.86 3.46L34.86 3.46Q34.92 3.46 35.04 3.47L35.04 3.47L35.04 3.47Q35.17 3.49 35.24 3.49L35.24 3.49L35.24 3.49Q35.28 3.49 36.55 3.52L36.55 3.52L36.55 3.52Q37.83 3.56 38.65 3.56L38.65 3.56L38.65 3.56Q38.95 3.56 40.10 3.53L40.10 3.53L40.10 3.53Q41.26 3.50 41.45 3.50L41.45 3.50L41.45 3.50Q41.72 3.50 41.72 3.82L41.72 3.82L41.72 3.82Q41.72 3.91 41.64 4.38L41.64 4.38L41.64 4.38Q41.55 4.84 41.55 5.25L41.55 5.25L41.55 5.25Q41.55 5.38 41.48 5.47L41.48 5.47L41.48 5.47Q41.41 5.56 41.33 5.56L41.33 5.56L41.33 5.56Q41.12 5.56 41.12 5.26L41.12 5.26L41.12 5.26Q41.12 4.89 40.88 4.58L40.88 4.58L40.88 4.58Q40.64 4.27 40.29 4.26L40.29 4.26L40.29 4.26Q39.03 4.16 38.36 4.16L38.36 4.16L38.00 4.16L38.00 4.16Q37.27 4.16 37.15 4.26L37.15 4.26L37.15 4.26Q37.03 4.37 37.00 5.01L37.00 5.01L37.00 5.01Q36.95 6.02 36.95 7.35L36.95 7.35L36.95 7.35Q36.95 8.05 37.21 8.06L37.21 8.06L37.56 8.06L38.15 8.06L38.58 8.06L38.58 8.06Q39.42 8.06 39.70 8.01L39.70 8.01L39.70 8.01Q39.98 7.95 40.21 7.80L40.21 7.80L40.21 7.80Q40.47 7.62 40.53 7.28L40.53 7.28L40.53 7.28Q40.57 7.04 40.73 7.04L40.73 7.04L40.73 7.04Q40.85 7.04 40.88 7.08L40.88 7.08L40.88 7.08Q40.91 7.13 40.91 7.27L40.91 7.27L40.91 7.27Q40.91 7.36 40.85 7.91L40.85 7.91L40.85 7.91Q40.80 8.46 40.80 8.74L40.80 8.74L40.80 8.74Q40.80 9.00 40.82 9.24L40.82 9.24L40.82 9.24Q40.84 9.48 40.84 9.59L40.84 9.59L40.84 9.59Q40.84 9.94 40.74 9.94L40.74 9.94L40.74 9.94Q40.53 9.94 40.43 9.60L40.43 9.60L40.43 9.60Q40.24 9.02 40.08 8.92L40.08 8.92L40.08 8.92Q39.79 8.72 38.74 8.72L38.74 8.72L38.74 8.72Q38.32 8.72 38.06 8.72L38.06 8.72L38.06 8.72Q37.80 8.72 37.72 8.71L37.72 8.71L37.72 8.71Q37.65 8.71 37.60 8.71L37.60 8.71L37.60 8.71Q37.55 8.71 37.51 8.71L37.51 8.71L37.51 8.71Q36.93 8.71 36.93 8.97L36.93 8.97L36.93 8.97Q36.93 9.38 36.92 9.99L36.92 9.99L36.92 9.99Q36.90 10.60 36.90 10.99L36.90 10.99L36.90 11.55L36.90 11.55Q36.90 12.56 37.24 12.66L37.24 12.66L37.24 12.66Q37.59 12.77 37.84 12.77L37.84 12.77L37.84 12.77Q38.89 12.77 39.68 12.67L39.68 12.67L39.68 12.67Q40.47 12.57 40.87 12.42L40.87 12.42L40.87 12.42Q41.27 12.28 41.54 12.10L41.54 12.10L41.54 12.10Q41.80 11.93 41.88 11.78L41.88 11.78L41.88 11.78Q41.96 11.63 42.03 11.54L42.03 11.54L42.03 11.54Q42.11 11.44 42.20 11.44L42.20 11.44L42.20 11.44Q42.36 11.44 42.36 11.68L42.36 11.68L42.36 11.68Q42.36 12.28 41.76 12.89L41.76 12.89L41.76 12.89Q41.16 13.51 40.71 13.51L40.71 13.51L40.71 13.51Q39.70 13.51 38.44 13.44L38.44 13.44L38.44 13.44Q37.17 13.37 36.86 13.37L36.86 13.37L36.86 13.37Q36.47 13.37 35.88 13.43L35.88 13.43L35.88 13.43Q35.29 13.50 34.96 13.50L34.96 13.50L34.96 13.50Q34.66 13.50 34.66 13.36L34.66 13.36L34.66 13.36Q34.66 13.23 34.66 13.19L34.66 13.19L34.66 13.19Q34.66 13.15 34.71 13.12L34.71 13.12L34.71 13.12Q34.75 13.09 34.80 13.08L34.80 13.08L34.80 13.08Q34.85 13.08 34.98 13.03L34.98 13.03L34.98 13.03Q35.11 12.99 35.27 12.92L35.27 12.92L35.27 12.92Q35.60 12.75 35.71 12.26L35.71 12.26L35.71 12.26Q35.81 11.77 35.81 10.21L35.81 10.21L35.81 8.47L35.81 8.47Q35.81 8.09 35.83 7.29L35.83 7.29L35.83 7.29Q35.85 6.50 35.85 6.05L35.85 6.05L35.85 6.05Q35.85 5.67 35.83 4.77L35.83 4.77L35.83 4.77Q35.81 4.37 35.48 4.14L35.48 4.14L35.48 4.14Q35.14 3.92 34.69 3.91L34.69 3.91L34.69 3.91Q34.47 3.91 34.47 3.65ZM42.92 3.71L42.92 3.71L42.92 3.71Q42.92 3.50 43.18 3.50L43.18 3.50L43.18 3.50Q43.26 3.50 43.56 3.53L43.56 3.53L43.56 3.53Q43.86 3.56 43.92 3.56L43.92 3.56L43.92 3.56Q44.13 3.56 44.49 3.54L44.49 3.54L44.49 3.54Q44.86 3.53 44.97 3.53L44.97 3.53L44.97 3.53Q45.23 3.53 45.30 3.72L45.30 3.72L45.30 3.72Q45.47 4.09 45.91 5.03L45.91 5.03L45.91 5.03Q46.34 5.98 46.60 6.54L46.60 6.54L46.60 6.54Q46.86 7.10 47.26 7.97L47.26 7.97L47.26 7.97Q47.67 8.83 47.92 9.37L47.92 9.37L47.92 9.37Q48.17 9.91 48.45 10.46L48.45 10.46L48.45 10.46Q48.72 11.00 48.87 11.26L48.87 11.26L48.87 11.26Q49.01 11.52 49.06 11.52L49.06 11.52L49.06 11.52Q49.10 11.52 49.15 11.47L49.15 11.47L49.15 11.47Q49.20 11.42 49.24 11.34L49.24 11.34L49.24 11.34Q49.29 11.26 49.33 11.17L49.33 11.17L49.33 11.17Q49.36 11.09 49.43 10.96L49.43 10.96L49.43 10.96Q49.49 10.82 49.52 10.75L49.52 10.75L51.32 7.03L51.32 7.03Q51.63 6.40 51.87 5.89L51.87 5.89L51.87 5.89Q52.11 5.39 52.25 5.08L52.25 5.08L52.25 5.08Q52.39 4.77 52.49 4.55L52.49 4.55L52.49 4.55Q52.58 4.33 52.63 4.21L52.63 4.21L52.63 4.21Q52.68 4.10 52.70 4.04L52.70 4.04L52.70 4.04Q52.72 3.98 52.74 3.94L52.74 3.94L52.74 3.94Q52.75 3.91 52.77 3.88L52.77 3.88L52.77 3.88Q52.78 3.85 52.81 3.75L52.81 3.75L52.81 3.75Q52.85 3.65 52.88 3.62L52.88 3.62L52.88 3.62Q52.92 3.58 53.02 3.54L53.02 3.54L53.02 3.54Q53.13 3.50 53.30 3.50L53.30 3.50L53.30 3.50Q53.56 3.50 53.79 3.51L53.79 3.51L53.79 3.51Q54.03 3.53 54.50 3.53L54.50 3.53L54.50 3.53Q54.74 3.53 54.74 3.71L54.74 3.71L54.74 3.71Q54.74 3.85 54.65 3.91L54.65 3.91L54.65 3.91Q54.56 3.98 54.28 4.02L54.28 4.02L54.28 4.02Q53.93 4.06 53.79 4.37L53.79 4.37L53.79 4.37Q53.65 4.68 53.65 5.54L53.65 5.54L53.65 5.54Q53.65 7.43 53.73 8.97L53.73 8.97L53.73 8.97Q53.82 10.50 53.82 10.89L53.82 10.89L53.82 10.89Q53.82 12.29 54.04 12.68L54.04 12.68L54.04 12.68Q54.26 13.06 54.98 13.06L54.98 13.06L54.98 13.06Q55.08 13.06 55.15 13.13L55.15 13.13L55.15 13.13Q55.23 13.20 55.23 13.26L55.23 13.26L55.23 13.26Q55.23 13.34 55.22 13.38L55.22 13.38L55.22 13.38Q55.20 13.43 55.16 13.45L55.16 13.45L55.16 13.45Q55.12 13.48 55.08 13.48L55.08 13.48L55.08 13.48Q55.03 13.48 54.92 13.48L54.92 13.48L54.92 13.48Q54.50 13.48 54.10 13.45L54.10 13.45L54.10 13.45Q53.69 13.43 53.49 13.43L53.49 13.43L53.49 13.43Q53.10 13.43 52.68 13.46L52.68 13.46L52.68 13.46Q52.26 13.50 52.04 13.50L52.04 13.50L52.04 13.50Q51.79 13.50 51.79 13.30L51.79 13.30L51.79 13.30Q51.79 13.17 51.90 13.12L51.90 13.12L51.90 13.12Q52.01 13.06 52.16 13.05L52.16 13.05L52.16 13.05Q52.30 13.03 52.46 12.87L52.46 12.87L52.46 12.87Q52.63 12.71 52.70 12.39L52.70 12.39L52.70 12.39Q52.75 12.11 52.75 11.49L52.75 11.49L52.75 11.49Q52.75 11.05 52.73 10.42L52.73 10.42L52.73 10.42Q52.71 9.79 52.68 9.19L52.68 9.19L52.68 9.19Q52.65 8.60 52.63 8.07L52.63 8.07L52.63 8.07Q52.60 7.55 52.58 7.21L52.58 7.21L52.56 6.87L52.56 6.87Q52.56 6.27 52.43 6.27L52.43 6.27L52.43 6.27Q52.42 6.27 52.39 6.29L52.39 6.29L52.39 6.29Q52.36 6.30 52.34 6.33L52.34 6.33L52.34 6.33Q52.32 6.36 52.29 6.38L52.29 6.38L52.29 6.38Q52.26 6.41 52.23 6.47L52.23 6.47L52.23 6.47Q52.21 6.54 52.18 6.58L52.18 6.58L52.18 6.58Q52.15 6.62 52.11 6.70L52.11 6.70L52.11 6.70Q52.07 6.78 52.04 6.83L52.04 6.83L52.04 6.83Q52.01 6.89 51.96 6.99L51.96 6.99L51.96 6.99Q51.91 7.08 51.88 7.15L51.88 7.15L49.94 11.09L49.94 11.09Q49.60 11.77 49.22 12.56L49.22 12.56L49.22 12.56Q48.97 13.09 48.92 13.18L48.92 13.18L48.92 13.18Q48.86 13.27 48.78 13.27L48.78 13.27L48.78 13.27Q48.65 13.27 48.57 13.15L48.57 13.15L48.57 13.15Q48.48 13.03 48.31 12.63L48.31 12.63L48.31 12.63Q48.15 12.22 48.02 11.96L48.02 11.96L48.02 11.96Q45.46 6.75 45.39 6.65L45.39 6.65L45.39 6.65Q45.35 6.59 45.30 6.59L45.30 6.59L45.30 6.59Q45.19 6.59 45.19 7.15L45.19 7.15L45.19 7.15Q45.18 8.25 45.12 9.31L45.12 9.31L45.12 9.31Q45.07 10.37 45.07 10.85L45.07 10.85L45.07 11.48L45.07 11.48Q45.07 11.84 45.09 12.04L45.09 12.04L45.09 12.04Q45.11 12.24 45.20 12.49L45.20 12.49L45.20 12.49Q45.29 12.75 45.53 12.89L45.53 12.89L45.53 12.89Q45.77 13.03 46.14 13.08L46.14 13.08L46.14 13.08Q46.21 13.08 46.28 13.13L46.28 13.13L46.28 13.13Q46.34 13.17 46.34 13.23L46.34 13.23L46.34 13.23Q46.34 13.38 46.30 13.43L46.30 13.43L46.30 13.43Q46.26 13.48 46.13 13.48L46.13 13.48L46.13 13.48Q45.85 13.48 45.29 13.45L45.29 13.45L45.29 13.45Q44.73 13.43 44.67 13.43L44.67 13.43L44.67 13.43Q44.65 13.43 44.27 13.45L44.27 13.45L44.27 13.45Q43.89 13.47 43.53 13.47L43.53 13.47L43.53 13.47Q43.41 13.47 43.36 13.45L43.36 13.45L43.36 13.45Q43.32 13.44 43.27 13.39L43.27 13.39L43.27 13.39Q43.23 13.34 43.23 13.24L43.23 13.24L43.23 13.24Q43.23 13.13 43.36 13.09L43.36 13.09L43.36 13.09Q43.48 13.05 43.64 13.04L43.64 13.04L43.64 13.04Q43.81 13.03 44.00 12.82L44.00 12.82L44.00 12.82Q44.20 12.60 44.30 12.18L44.30 12.18L44.30 12.18Q44.37 11.87 44.46 9.74L44.46 9.74L44.46 9.74Q44.56 7.62 44.56 6.59L44.56 6.59L44.56 6.59Q44.56 5.19 44.29 4.66L44.29 4.66L44.29 4.66Q44.02 4.13 43.11 3.92L43.11 3.92L43.11 3.92Q42.92 3.88 42.92 3.71ZM56.13 10.82L56.13 10.82L56.13 10.82Q56.13 10.53 56.32 10.53L56.32 10.53L56.32 10.53Q56.50 10.53 56.55 10.67L56.55 10.67L56.55 10.67Q56.69 11.00 56.80 11.25L56.80 11.25L56.80 11.25Q56.92 11.49 57.19 11.85L57.19 11.85L57.19 11.85Q57.46 12.21 57.76 12.44L57.76 12.44L57.76 12.44Q58.07 12.67 58.55 12.84L58.55 12.84L58.55 12.84Q59.04 13.01 59.61 13.01L59.61 13.01L59.61 13.01Q60.66 13.01 61.30 12.45L61.30 12.45L61.30 12.45Q61.94 11.90 61.94 11.00L61.94 11.00L61.94 11.00Q61.94 10.35 61.50 9.90L61.50 9.90L61.50 9.90Q61.07 9.46 60.51 9.27L60.51 9.27L60.51 9.27Q59.95 9.09 59.09 8.77L59.09 8.77L59.09 8.77Q58.23 8.46 57.68 8.13L57.68 8.13L57.68 8.13Q56.41 7.38 56.41 6.08L56.41 6.08L56.41 6.08Q56.41 4.83 57.31 4.08L57.31 4.08L57.31 4.08Q58.21 3.33 59.65 3.33L59.65 3.33L59.65 3.33Q60.19 3.33 60.92 3.56L60.92 3.56L60.92 3.56Q61.66 3.79 61.67 3.79L61.67 3.79L61.67 3.79Q61.71 3.79 61.82 3.74L61.82 3.74L61.82 3.74Q61.94 3.68 61.99 3.68L61.99 3.68L61.99 3.68Q62.17 3.68 62.20 3.79L62.20 3.79L62.20 3.79Q62.50 5.49 62.50 5.70L62.50 5.70L62.50 5.70Q62.50 6.09 62.30 6.09L62.30 6.09L62.30 6.09Q62.17 6.09 62.10 5.89L62.10 5.89L62.10 5.89Q61.94 5.49 61.77 5.24L61.77 5.24L61.77 5.24Q61.61 4.98 61.54 4.91L61.54 4.91L61.54 4.91Q61.47 4.84 61.18 4.58L61.18 4.58L61.18 4.58Q60.42 3.91 59.35 3.91L59.35 3.91L59.35 3.91Q58.48 3.91 57.89 4.33L57.89 4.33L57.89 4.33Q57.30 4.75 57.30 5.46L57.30 5.46L57.30 5.46Q57.30 6.09 57.64 6.50L57.64 6.50L57.64 6.50Q57.99 6.90 58.56 7.13L58.56 7.13L58.56 7.13Q59.14 7.35 59.77 7.55L59.77 7.55L59.77 7.55Q60.40 7.74 61.10 8.09L61.10 8.09L61.10 8.09Q61.81 8.44 62.27 8.93L62.27 8.93L62.27 8.93Q62.83 9.53 62.83 10.43L62.83 10.43L62.83 10.43Q62.83 11.90 61.89 12.76L61.89 12.76L61.89 12.76Q60.96 13.62 59.57 13.62L59.57 13.62L59.57 13.62Q58.60 13.62 58.02 13.52L58.02 13.52L58.02 13.52Q57.43 13.41 56.81 13.09L56.81 13.09L56.81 13.09Q56.63 12.98 56.38 12.00L56.38 12.00L56.38 12.00Q56.13 11.02 56.13 10.82Z"></path></g><!----><g data-v-423bf9ae="" id="3e910281-88cb-4f6b-b9cb-39720a4ac4cc" transform="matrix(2.7842154502868652,0,0,2.7842154502868652,0.3457302153110504,0.9999998807907104)" stroke="none" fill="black"><path d="M5.78 16L16 5.78 26.22 16 16 26.22z"></path><path d="M32 3.714A3.714 3.714 0 0 0 28.286 0c-1.659 0-3.047 1.095-3.524 2.596H7.238C6.761 1.095 5.373 0 3.714 0A3.714 3.714 0 0 0 0 3.714a3.7 3.7 0 0 0 2.597 3.524v17.524A3.7 3.7 0 0 0 0 28.286 3.714 3.714 0 0 0 3.714 32c1.506 0 2.795-.9 3.378-2.188h17.816A3.707 3.707 0 0 0 28.286 32a3.709 3.709 0 1 0 1.526-7.093V7.092A3.707 3.707 0 0 0 32 3.714zm-3.188 20.911c-.173-.025-.346-.053-.526-.053a3.714 3.714 0 0 0-3.714 3.714c0 .18.028.353.053.526H7.375c.025-.173.053-.346.053-.526a3.714 3.714 0 0 0-3.714-3.714c-.04 0-.077.01-.117.012V7.416c.04.001.077.012.117.012a3.714 3.714 0 0 0 3.714-3.714c0-.04-.011-.078-.012-.117h17.168c-.001.04-.012.077-.012.117a3.714 3.714 0 0 0 3.714 3.714c.18 0 .352-.028.526-.053v17.25z"></path></g><!----></svg>